<?xml version="1.0" encoding="UTF-8"?>
<svg id="Capa_2" data-name="Capa 2" xmlns="http://www.w3.org/2000/svg" viewBox="0 0 34.21 25.87">
  <defs>
    <style>
      .cls-1 {
        fill: #3d3d3d;
      }

      .cls-1, .cls-2 {
        stroke-width: 0px;
      }

      .cls-2 {
        fill: #fff;
      }
    </style>
  </defs>
  <g id="Capa_1-2" data-name="Capa 1">
    <g>
      <polygon class="cls-2" points="7.7 23.02 0 6.85 9.66 15.4 16.98 0 24.55 16.13 34.21 5.66 26.17 23.06 7.7 23.02"/>
      <rect class="cls-2" x="7.57" y="24.26" width="18.77" height="1.62"/>
      <polygon class="cls-2" points="5.01 12.91 6.66 6.27 12.73 11.25 20.87 11.32 25.43 6.79 28.4 13.14 16.95 21.97 5.01 12.91"/>
      <path class="cls-1" d="M20.11,12.98c2.01.22.57,8.17.57,8.17,0,0-.96-6.61-1.72-7.09s-3.43.35-3.26,1.98c.26,2.38,2.21,2.64,2.21,2.64l-.7,3.51-1.36-2.65c-.24-.33-1.13-2.87-1.43-2.6l-3.59,4.57,3.57-7.1c1.24-2.04,3.7-1.66,5.71-1.44Z"/>
      <circle class="cls-1" cx="17.8" cy="16.17" r=".82"/>
      <path class="cls-1" d="M15.61,17.66s-2.6.79-2.97.24-.84.4-.38.89,3.39.22,3.55-.54-.2-.59-.2-.59Z"/>
    </g>
  </g>
</svg>